<svg width="414" height="736" viewBox="0 0 414 736" fill="none" xmlns="http://www.w3.org/2000/svg">
<defs>
<linearGradient id="paint0_linear" x1="367.025" y1="630.634" x2="367.025" y2="61.6559" gradientUnits="userSpaceOnUse">
<stop stop-color="#24293F"/>
<stop offset="0.979746" stop-color="#545F92"/>
</linearGradient>
<clipPath id="clip0">
<rect width="414" height="736" fill="white"/>
</clipPath>
<clipPath id="clip1">
<rect width="110" height="112" fill="white" transform="translate(22 32)"/>
</clipPath>
</defs>
<g clip-path="url(#clip0)">
<rect width="414" height="736" fill="white"/>
<rect width="414" height="736" fill="url(#paint0_linear)"/>
<path fill-rule="evenodd" clip-rule="evenodd" d="M15.5 131.25L11.0916 133.568L11.9335 128.659L8.36708 125.182L13.2958 124.466L15.5 120L17.7042 124.466L22.6329 125.182L19.0665 128.659L19.9084 133.568L15.5 131.25Z" fill="white" fill-opacity="0.22"/>
<path fill-rule="evenodd" clip-rule="evenodd" d="M381.5 33.25L378.267 34.9496L378.885 31.3498L376.269 28.8004L379.884 28.2752L381.5 25L383.116 28.2752L386.731 28.8004L384.115 31.3498L384.733 34.9496L381.5 33.25Z" fill="white" fill-opacity="0.22"/>
<path fill-rule="evenodd" clip-rule="evenodd" d="M312.231 91.25L308.998 92.9496L309.615 89.3498L307 86.8004L310.614 86.2752L312.231 83L313.847 86.2752L317.462 86.8004L314.846 89.3498L315.464 92.9496L312.231 91.25Z" fill="white" fill-opacity="0.22"/>
<path fill-rule="evenodd" clip-rule="evenodd" d="M115.231 96.25L111.998 97.9496L112.615 94.3498L110 91.8004L113.614 91.2752L115.231 88L116.847 91.2752L120.462 91.8004L117.846 94.3498L118.464 97.9496L115.231 96.25Z" fill="white" fill-opacity="0.22"/>
<path fill-rule="evenodd" clip-rule="evenodd" d="M17.5 73.25L13.0916 75.5676L13.9335 70.6588L10.3671 67.1824L15.2958 66.4662L17.5 62L19.7042 66.4662L24.6329 67.1824L21.0665 70.6588L21.9084 75.5676L17.5 73.25Z" fill="white" fill-opacity="0.22"/>
<path fill-rule="evenodd" clip-rule="evenodd" d="M353.231 95.25L349.998 96.9496L350.615 93.3498L348 90.8004L351.614 90.2752L353.231 87L354.847 90.2752L358.462 90.8004L355.846 93.3498L356.464 96.9496L353.231 95.25Z" fill="white" fill-opacity="0.22"/>
<path fill-rule="evenodd" clip-rule="evenodd" d="M284.231 8.25L280.998 9.94959L281.615 6.3498L279 3.80041L282.614 3.2752L284.231 0L285.847 3.2752L289.462 3.80041L286.846 6.3498L287.464 9.94959L284.231 8.25Z" fill="white" fill-opacity="0.22"/>
<path fill-rule="evenodd" clip-rule="evenodd" d="M87.2308 13.25L83.998 14.9496L84.6154 11.3498L82 8.80041L85.6144 8.2752L87.2308 5L88.8472 8.2752L92.4616 8.80041L89.8462 11.3498L90.4637 14.9496L87.2308 13.25Z" fill="white" fill-opacity="0.22"/>
<path fill-rule="evenodd" clip-rule="evenodd" d="M367.5 64.25L364.267 65.9496L364.885 62.3498L362.269 59.8004L365.884 59.2752L367.5 56L369.116 59.2752L372.731 59.8004L370.115 62.3498L370.733 65.9496L367.5 64.25Z" fill="white" fill-opacity="0.22"/>
<path fill-rule="evenodd" clip-rule="evenodd" d="M327.231 33.25L323.998 34.9496L324.615 31.3498L322 28.8004L325.614 28.2752L327.231 25L328.847 28.2752L332.462 28.8004L329.846 31.3498L330.464 34.9496L327.231 33.25Z" fill="white" fill-opacity="0.22"/>
<path fill-rule="evenodd" clip-rule="evenodd" d="M130.231 38.25L126.998 39.9496L127.615 36.3498L125 33.8004L128.614 33.2752L130.231 30L131.847 33.2752L135.462 33.8004L132.846 36.3498L133.464 39.9496L130.231 38.25Z" fill="white" fill-opacity="0.22"/>
<path fill-rule="evenodd" clip-rule="evenodd" d="M315.231 112.25L311.998 113.95L312.615 110.35L310 107.8L313.614 107.275L315.231 104L316.847 107.275L320.462 107.8L317.846 110.35L318.464 113.95L315.231 112.25Z" fill="white" fill-opacity="0.22"/>
<path fill-rule="evenodd" clip-rule="evenodd" d="M246.231 25.25L242.998 26.9496L243.615 23.3498L241 20.8004L244.614 20.2752L246.231 17L247.847 20.2752L251.462 20.8004L248.846 23.3498L249.464 26.9496L246.231 25.25Z" fill="white" fill-opacity="0.22"/>
<path fill-rule="evenodd" clip-rule="evenodd" d="M49.2308 30.25L45.998 31.9496L46.6154 28.3498L44 25.8004L47.6144 25.2752L49.2308 22L50.8472 25.2752L54.4616 25.8004L51.8462 28.3498L52.4637 31.9496L49.2308 30.25Z" fill="white" fill-opacity="0.22"/>
<path fill-rule="evenodd" clip-rule="evenodd" d="M396.5 80.25L393.267 81.9496L393.885 78.3498L391.269 75.8004L394.884 75.2752L396.5 72L398.116 75.2752L401.731 75.8004L399.115 78.3498L399.733 81.9496L396.5 80.25Z" fill="white" fill-opacity="0.22"/>
<path fill-rule="evenodd" clip-rule="evenodd" d="M328.231 64.25L324.998 65.9496L325.615 62.3498L323 59.8004L326.614 59.2752L328.231 56L329.847 59.2752L333.462 59.8004L330.846 62.3498L331.464 65.9496L328.231 64.25Z" fill="white" fill-opacity="0.22"/>
<path fill-rule="evenodd" clip-rule="evenodd" d="M376.769 136.25L373.536 137.95L374.154 134.35L371.538 131.8L375.153 131.275L376.769 128L378.386 131.275L382 131.8L379.385 134.35L380.002 137.95L376.769 136.25Z" fill="white" fill-opacity="0.22"/>
<path fill-rule="evenodd" clip-rule="evenodd" d="M348.5 198.25L345.267 199.95L345.885 196.35L343.269 193.8L346.884 193.275L348.5 190L350.116 193.275L353.731 193.8L351.115 196.35L351.733 199.95L348.5 198.25Z" fill="white" fill-opacity="0.22"/>
<path fill-rule="evenodd" clip-rule="evenodd" d="M362.769 167.25L359.536 168.95L360.154 165.35L357.538 162.8L361.153 162.275L362.769 159L364.386 162.275L368 162.8L365.385 165.35L366.002 168.95L362.769 167.25Z" fill="white" fill-opacity="0.22"/>
<path fill-rule="evenodd" clip-rule="evenodd" d="M322.5 136.25L319.267 137.95L319.885 134.35L317.269 131.8L320.884 131.275L322.5 128L324.116 131.275L327.731 131.8L325.115 134.35L325.733 137.95L322.5 136.25Z" fill="white" fill-opacity="0.22"/>
<path fill-rule="evenodd" clip-rule="evenodd" d="M310.5 215.25L307.267 216.95L307.885 213.35L305.269 210.8L308.884 210.275L310.5 207L312.116 210.275L315.731 210.8L313.115 213.35L313.733 216.95L310.5 215.25Z" fill="white" fill-opacity="0.22"/>
<path fill-rule="evenodd" clip-rule="evenodd" d="M391.769 183.25L388.536 184.95L389.154 181.35L386.538 178.8L390.153 178.275L391.769 175L393.386 178.275L397 178.8L394.385 181.35L395.002 184.95L391.769 183.25Z" fill="white" fill-opacity="0.22"/>
<path fill-rule="evenodd" clip-rule="evenodd" d="M323.5 167.25L320.267 168.95L320.885 165.35L318.269 162.8L321.884 162.275L323.5 159L325.116 162.275L328.731 162.8L326.115 165.35L326.733 168.95L323.5 167.25Z" fill="white" fill-opacity="0.22"/>
<path fill-rule="evenodd" clip-rule="evenodd" d="M78.7692 168.25L75.5363 169.95L76.1538 166.35L73.5384 163.8L77.1528 163.275L78.7692 160L80.3856 163.275L84 163.8L81.3846 166.35L82.002 169.95L78.7692 168.25Z" fill="white" fill-opacity="0.22"/>
<path fill-rule="evenodd" clip-rule="evenodd" d="M50.5 230.25L47.2672 231.95L47.8846 228.35L45.2692 225.8L48.8836 225.275L50.5 222L52.1164 225.275L55.7308 225.8L53.1154 228.35L53.7328 231.95L50.5 230.25Z" fill="white" fill-opacity="0.22"/>
<path fill-rule="evenodd" clip-rule="evenodd" d="M64.7692 199.25L61.5363 200.95L62.1538 197.35L59.5384 194.8L63.1528 194.275L64.7692 191L66.3856 194.275L70 194.8L67.3846 197.35L68.002 200.95L64.7692 199.25Z" fill="white" fill-opacity="0.22"/>
<path fill-rule="evenodd" clip-rule="evenodd" d="M24.5 168.25L21.2672 169.95L21.8846 166.35L19.2692 163.8L22.8836 163.275L24.5 160L26.1164 163.275L29.7308 163.8L27.1154 166.35L27.7328 169.95L24.5 168.25Z" fill="white" fill-opacity="0.22"/>
<path fill-rule="evenodd" clip-rule="evenodd" d="M12.5 247.25L9.26718 248.95L9.88459 245.35L7.26919 242.8L10.8836 242.275L12.5 239L14.1164 242.275L17.7308 242.8L15.1154 245.35L15.7328 248.95L12.5 247.25Z" fill="white" fill-opacity="0.22"/>
<path fill-rule="evenodd" clip-rule="evenodd" d="M93.7692 215.25L90.5363 216.95L91.1538 213.35L88.5384 210.8L92.1528 210.275L93.7692 207L95.3856 210.275L99 210.8L96.3846 213.35L97.002 216.95L93.7692 215.25Z" fill="white" fill-opacity="0.22"/>
<path fill-rule="evenodd" clip-rule="evenodd" d="M25.5 199.25L22.2672 200.95L22.8846 197.35L20.2692 194.8L23.8836 194.275L25.5 191L27.1164 194.275L30.7308 194.8L28.1154 197.35L28.7328 200.95L25.5 199.25Z" fill="white" fill-opacity="0.22"/>
<path fill-rule="evenodd" clip-rule="evenodd" d="M190.769 135.25L187.536 136.95L188.154 133.35L185.538 130.8L189.153 130.275L190.769 127L192.386 130.275L196 130.8L193.385 133.35L194.002 136.95L190.769 135.25Z" fill="white" fill-opacity="0.22"/>
<path fill-rule="evenodd" clip-rule="evenodd" d="M162.5 197.25L159.267 198.95L159.885 195.35L157.269 192.8L160.884 192.275L162.5 189L164.116 192.275L167.731 192.8L165.115 195.35L165.733 198.95L162.5 197.25Z" fill="white" fill-opacity="0.22"/>
<path fill-rule="evenodd" clip-rule="evenodd" d="M176.769 166.25L173.536 167.95L174.154 164.35L171.538 161.8L175.153 161.275L176.769 158L178.386 161.275L182 161.8L179.385 164.35L180.002 167.95L176.769 166.25Z" fill="white" fill-opacity="0.22"/>
<path fill-rule="evenodd" clip-rule="evenodd" d="M136.5 135.25L133.267 136.95L133.885 133.35L131.269 130.8L134.884 130.275L136.5 127L138.116 130.275L141.731 130.8L139.115 133.35L139.733 136.95L136.5 135.25Z" fill="white" fill-opacity="0.22"/>
<path fill-rule="evenodd" clip-rule="evenodd" d="M124.5 214.25L121.267 215.95L121.885 212.35L119.269 209.8L122.884 209.275L124.5 206L126.116 209.275L129.731 209.8L127.115 212.35L127.733 215.95L124.5 214.25Z" fill="white" fill-opacity="0.22"/>
<path fill-rule="evenodd" clip-rule="evenodd" d="M205.769 182.25L202.536 183.95L203.154 180.35L200.538 177.8L204.153 177.275L205.769 174L207.386 177.275L211 177.8L208.385 180.35L209.002 183.95L205.769 182.25Z" fill="white" fill-opacity="0.22"/>
<path fill-rule="evenodd" clip-rule="evenodd" d="M137.5 166.25L134.267 167.95L134.885 164.35L132.269 161.8L135.884 161.275L137.5 158L139.116 161.275L142.731 161.8L140.115 164.35L140.733 167.95L137.5 166.25Z" fill="white" fill-opacity="0.22"/>
<path fill-rule="evenodd" clip-rule="evenodd" d="M278.769 131.25L275.536 132.95L276.154 129.35L273.538 126.8L277.153 126.275L278.769 123L280.386 126.275L284 126.8L281.385 129.35L282.002 132.95L278.769 131.25Z" fill="white" fill-opacity="0.22"/>
<path fill-rule="evenodd" clip-rule="evenodd" d="M250.5 193.25L247.267 194.95L247.885 191.35L245.269 188.8L248.884 188.275L250.5 185L252.116 188.275L255.731 188.8L253.115 191.35L253.733 194.95L250.5 193.25Z" fill="white" fill-opacity="0.22"/>
<path fill-rule="evenodd" clip-rule="evenodd" d="M264.769 162.25L261.536 163.95L262.154 160.35L259.538 157.8L263.153 157.275L264.769 154L266.386 157.275L270 157.8L267.385 160.35L268.002 163.95L264.769 162.25Z" fill="white" fill-opacity="0.22"/>
<path fill-rule="evenodd" clip-rule="evenodd" d="M224.5 131.25L221.267 132.95L221.885 129.35L219.269 126.8L222.884 126.275L224.5 123L226.116 126.275L229.731 126.8L227.115 129.35L227.733 132.95L224.5 131.25Z" fill="white" fill-opacity="0.22"/>
<path fill-rule="evenodd" clip-rule="evenodd" d="M212.5 210.25L209.267 211.95L209.885 208.35L207.269 205.8L210.884 205.275L212.5 202L214.116 205.275L217.731 205.8L215.115 208.35L215.733 211.95L212.5 210.25Z" fill="white" fill-opacity="0.22"/>
<path fill-rule="evenodd" clip-rule="evenodd" d="M293.769 178.25L290.536 179.95L291.154 176.35L288.538 173.8L292.153 173.275L293.769 170L295.386 173.275L299 173.8L296.385 176.35L297.002 179.95L293.769 178.25Z" fill="white" fill-opacity="0.22"/>
<path fill-rule="evenodd" clip-rule="evenodd" d="M225.5 162.25L222.267 163.95L222.885 160.35L220.269 157.8L223.884 157.275L225.5 154L227.116 157.275L230.731 157.8L228.115 160.35L228.733 163.95L225.5 162.25Z" fill="white" fill-opacity="0.22"/>
<path fill-rule="evenodd" clip-rule="evenodd" d="M131.231 69.25L127.998 70.9496L128.615 67.3498L126 64.8004L129.614 64.2752L131.231 61L132.847 64.2752L136.462 64.8004L133.846 67.3498L134.464 70.9496L131.231 69.25Z" fill="white" fill-opacity="0.22"/>
<path fill-rule="evenodd" clip-rule="evenodd" d="M165.5 21.25L161.092 23.5676L161.934 18.6588L158.367 15.1824L163.296 14.4662L165.5 10L167.704 14.4662L172.633 15.1824L169.066 18.6588L169.908 23.5676L165.5 21.25Z" fill="white" fill-opacity="0.22"/>
<path fill-rule="evenodd" clip-rule="evenodd" d="M278.5 59.25L275.267 60.9496L275.885 57.3498L273.269 54.8004L276.884 54.2752L278.5 51L280.116 54.2752L283.731 54.8004L281.115 57.3498L281.733 60.9496L278.5 59.25Z" fill="white" fill-opacity="0.22"/>
<path fill-rule="evenodd" clip-rule="evenodd" d="M213.5 28.25L210.267 29.9496L210.885 26.3498L208.269 23.8004L211.884 23.2752L213.5 20L215.116 23.2752L218.731 23.8004L216.115 26.3498L216.733 29.9496L213.5 28.25Z" fill="white" fill-opacity="0.22"/>
<path fill-rule="evenodd" clip-rule="evenodd" d="M175.5 54.25L172.267 55.9496L172.885 52.3498L170.269 49.8004L173.884 49.2752L175.5 46L177.116 49.2752L180.731 49.8004L178.115 52.3498L178.733 55.9496L175.5 54.25Z" fill="white" fill-opacity="0.22"/>
<path fill-rule="evenodd" clip-rule="evenodd" d="M249.231 87.25L245.998 88.9496L246.615 85.3498L244 82.8004L247.614 82.2752L249.231 79L250.847 82.2752L254.462 82.8004L251.846 85.3498L252.464 88.9496L249.231 87.25Z" fill="white" fill-opacity="0.22"/>
<path fill-rule="evenodd" clip-rule="evenodd" d="M168.5 83.25L164.092 85.5676L164.934 80.6588L161.367 77.1824L166.296 76.4662L168.5 72L170.704 76.4662L175.633 77.1824L172.066 80.6588L172.908 85.5676L168.5 83.25Z" fill="white" fill-opacity="0.22"/>
<path fill-rule="evenodd" clip-rule="evenodd" d="M251.5 54.25L248.267 55.9496L248.885 52.3498L246.269 49.8004L249.884 49.2752L251.5 46L253.116 49.2752L256.731 49.8004L254.115 52.3498L254.733 55.9496L251.5 54.25Z" fill="white" fill-opacity="0.22"/>
<path fill-rule="evenodd" clip-rule="evenodd" d="M211.5 54.25L208.267 55.9496L208.885 52.3498L206.269 49.8004L209.884 49.2752L211.5 46L213.116 49.2752L216.731 49.8004L214.115 52.3498L214.733 55.9496L211.5 54.25Z" fill="white" fill-opacity="0.22"/>
<path fill-rule="evenodd" clip-rule="evenodd" d="M211.5 93.25L208.267 94.9496L208.885 91.3498L206.269 88.8004L209.884 88.2752L211.5 85L213.116 88.2752L216.731 88.8004L214.115 91.3498L214.733 94.9496L211.5 93.25Z" fill="white" fill-opacity="0.22"/>
<path fill-rule="evenodd" clip-rule="evenodd" d="M15.5 287.25L11.0916 289.568L11.9335 284.659L8.36708 281.182L13.2958 280.466L15.5 276L17.7042 280.466L22.6329 281.182L19.0665 284.659L19.9084 289.568L15.5 287.25Z" fill="white" fill-opacity="0.22"/>
<path fill-rule="evenodd" clip-rule="evenodd" d="M381.5 189.25L378.267 190.95L378.885 187.35L376.269 184.8L379.884 184.275L381.5 181L383.116 184.275L386.731 184.8L384.115 187.35L384.733 190.95L381.5 189.25Z" fill="white" fill-opacity="0.22"/>
<path fill-rule="evenodd" clip-rule="evenodd" d="M312.231 247.25L308.998 248.95L309.615 245.35L307 242.8L310.614 242.275L312.231 239L313.847 242.275L317.462 242.8L314.846 245.35L315.464 248.95L312.231 247.25Z" fill="white" fill-opacity="0.22"/>
<path fill-rule="evenodd" clip-rule="evenodd" d="M115.231 252.25L111.998 253.95L112.615 250.35L110 247.8L113.614 247.275L115.231 244L116.847 247.275L120.462 247.8L117.846 250.35L118.464 253.95L115.231 252.25Z" fill="white" fill-opacity="0.22"/>
<path fill-rule="evenodd" clip-rule="evenodd" d="M17.5 229.25L13.0916 231.568L13.9335 226.659L10.3671 223.182L15.2958 222.466L17.5 218L19.7042 222.466L24.6329 223.182L21.0665 226.659L21.9084 231.568L17.5 229.25Z" fill="white" fill-opacity="0.22"/>
<path fill-rule="evenodd" clip-rule="evenodd" d="M353.231 251.25L349.998 252.95L350.615 249.35L348 246.8L351.614 246.275L353.231 243L354.847 246.275L358.462 246.8L355.846 249.35L356.464 252.95L353.231 251.25Z" fill="white" fill-opacity="0.22"/>
<path fill-rule="evenodd" clip-rule="evenodd" d="M284.231 164.25L280.998 165.95L281.615 162.35L279 159.8L282.614 159.275L284.231 156L285.847 159.275L289.462 159.8L286.846 162.35L287.464 165.95L284.231 164.25Z" fill="white" fill-opacity="0.22"/>
<path fill-rule="evenodd" clip-rule="evenodd" d="M87.2308 169.25L83.998 170.95L84.6154 167.35L82 164.8L85.6144 164.275L87.2308 161L88.8472 164.275L92.4616 164.8L89.8462 167.35L90.4637 170.95L87.2308 169.25Z" fill="white" fill-opacity="0.22"/>
<path fill-rule="evenodd" clip-rule="evenodd" d="M367.5 220.25L364.267 221.95L364.885 218.35L362.269 215.8L365.884 215.275L367.5 212L369.116 215.275L372.731 215.8L370.115 218.35L370.733 221.95L367.5 220.25Z" fill="white" fill-opacity="0.22"/>
<path fill-rule="evenodd" clip-rule="evenodd" d="M327.231 189.25L323.998 190.95L324.615 187.35L322 184.8L325.614 184.275L327.231 181L328.847 184.275L332.462 184.8L329.846 187.35L330.464 190.95L327.231 189.25Z" fill="white" fill-opacity="0.22"/>
<path fill-rule="evenodd" clip-rule="evenodd" d="M130.231 194.25L126.998 195.95L127.615 192.35L125 189.8L128.614 189.275L130.231 186L131.847 189.275L135.462 189.8L132.846 192.35L133.464 195.95L130.231 194.25Z" fill="white" fill-opacity="0.22"/>
<path fill-rule="evenodd" clip-rule="evenodd" d="M315.231 268.25L311.998 269.95L312.615 266.35L310 263.8L313.614 263.275L315.231 260L316.847 263.275L320.462 263.8L317.846 266.35L318.464 269.95L315.231 268.25Z" fill="white" fill-opacity="0.22"/>
<path fill-rule="evenodd" clip-rule="evenodd" d="M246.231 181.25L242.998 182.95L243.615 179.35L241 176.8L244.614 176.275L246.231 173L247.847 176.275L251.462 176.8L248.846 179.35L249.464 182.95L246.231 181.25Z" fill="white" fill-opacity="0.22"/>
<path fill-rule="evenodd" clip-rule="evenodd" d="M49.2308 186.25L45.998 187.95L46.6154 184.35L44 181.8L47.6144 181.275L49.2308 178L50.8472 181.275L54.4616 181.8L51.8462 184.35L52.4637 187.95L49.2308 186.25Z" fill="white" fill-opacity="0.22"/>
<path fill-rule="evenodd" clip-rule="evenodd" d="M396.5 236.25L393.267 237.95L393.885 234.35L391.269 231.8L394.884 231.275L396.5 228L398.116 231.275L401.731 231.8L399.115 234.35L399.733 237.95L396.5 236.25Z" fill="white" fill-opacity="0.22"/>
<path fill-rule="evenodd" clip-rule="evenodd" d="M328.231 220.25L324.998 221.95L325.615 218.35L323 215.8L326.614 215.275L328.231 212L329.847 215.275L333.462 215.8L330.846 218.35L331.464 221.95L328.231 220.25Z" fill="white" fill-opacity="0.22"/>
<path fill-rule="evenodd" clip-rule="evenodd" d="M376.769 292.25L373.536 293.95L374.154 290.35L371.538 287.8L375.153 287.275L376.769 284L378.386 287.275L382 287.8L379.385 290.35L380.002 293.95L376.769 292.25Z" fill="white" fill-opacity="0.22"/>
<path fill-rule="evenodd" clip-rule="evenodd" d="M278.5 264.25L275.267 265.95L275.885 262.35L273.269 259.8L276.884 259.275L278.5 256L280.116 259.275L283.731 259.8L281.115 262.35L281.733 265.95L278.5 264.25Z" fill="white" fill-opacity="0.22"/>
<path fill-rule="evenodd" clip-rule="evenodd" d="M362.769 323.25L359.536 324.95L360.154 321.35L357.538 318.8L361.153 318.275L362.769 315L364.386 318.275L368 318.8L365.385 321.35L366.002 324.95L362.769 323.25Z" fill="white" fill-opacity="0.22"/>
<path fill-rule="evenodd" clip-rule="evenodd" d="M322.5 292.25L319.267 293.95L319.885 290.35L317.269 287.8L320.884 287.275L322.5 284L324.116 287.275L327.731 287.8L325.115 290.35L325.733 293.95L322.5 292.25Z" fill="white" fill-opacity="0.22"/>
<path fill-rule="evenodd" clip-rule="evenodd" d="M162.5 274.25L159.267 275.95L159.885 272.35L157.269 269.8L160.884 269.275L162.5 266L164.116 269.275L167.731 269.8L165.115 272.35L165.733 275.95L162.5 274.25Z" fill="white" fill-opacity="0.22"/>
<path fill-rule="evenodd" clip-rule="evenodd" d="M391.769 339.25L388.536 340.95L389.154 337.35L386.538 334.8L390.153 334.275L391.769 331L393.386 334.275L397 334.8L394.385 337.35L395.002 340.95L391.769 339.25Z" fill="white" fill-opacity="0.22"/>
<path fill-rule="evenodd" clip-rule="evenodd" d="M323.5 323.25L320.267 324.95L320.885 321.35L318.269 318.8L321.884 318.275L323.5 315L325.116 318.275L328.731 318.8L326.115 321.35L326.733 324.95L323.5 323.25Z" fill="white" fill-opacity="0.22"/>
<path fill-rule="evenodd" clip-rule="evenodd" d="M78.7692 324.25L75.5363 325.95L76.1538 322.35L73.5384 319.8L77.1528 319.275L78.7692 316L80.3856 319.275L84 319.8L81.3846 322.35L82.002 325.95L78.7692 324.25Z" fill="white" fill-opacity="0.22"/>
<path fill-rule="evenodd" clip-rule="evenodd" d="M51.5 298.25L48.2672 299.95L48.8846 296.35L46.2692 293.8L49.8836 293.275L51.5 290L53.1164 293.275L56.7308 293.8L54.1154 296.35L54.7328 299.95L51.5 298.25Z" fill="white" fill-opacity="0.22"/>
<path fill-rule="evenodd" clip-rule="evenodd" d="M64.7692 355.25L61.5363 356.95L62.1538 353.35L59.5384 350.8L63.1528 350.275L64.7692 347L66.3856 350.275L70 350.8L67.3846 353.35L68.002 356.95L64.7692 355.25Z" fill="white" fill-opacity="0.22"/>
<path fill-rule="evenodd" clip-rule="evenodd" d="M24.5 324.25L21.2672 325.95L21.8846 322.35L19.2692 319.8L22.8836 319.275L24.5 316L26.1164 319.275L29.7308 319.8L27.1154 322.35L27.7328 325.95L24.5 324.25Z" fill="white" fill-opacity="0.22"/>
<path fill-rule="evenodd" clip-rule="evenodd" d="M49.5 263.25L46.2672 264.95L46.8846 261.35L44.2692 258.8L47.8836 258.275L49.5 255L51.1164 258.275L54.7308 258.8L52.1154 261.35L52.7328 264.95L49.5 263.25Z" fill="white" fill-opacity="0.22"/>
<path fill-rule="evenodd" clip-rule="evenodd" d="M110.5 294.25L107.267 295.95L107.885 292.35L105.269 289.8L108.884 289.275L110.5 286L112.116 289.275L115.731 289.8L113.115 292.35L113.733 295.95L110.5 294.25Z" fill="white" fill-opacity="0.22"/>
<path fill-rule="evenodd" clip-rule="evenodd" d="M25.5 355.25L22.2672 356.95L22.8846 353.35L20.2692 350.8L23.8836 350.275L25.5 347L27.1164 350.275L30.7308 350.8L28.1154 353.35L28.7328 356.95L25.5 355.25Z" fill="white" fill-opacity="0.22"/>
<path fill-rule="evenodd" clip-rule="evenodd" d="M190.769 291.25L187.536 292.95L188.154 289.35L185.538 286.8L189.153 286.275L190.769 283L192.386 286.275L196 286.8L193.385 289.35L194.002 292.95L190.769 291.25Z" fill="white" fill-opacity="0.22"/>
<path fill-rule="evenodd" clip-rule="evenodd" d="M162.5 353.25L159.267 354.95L159.885 351.35L157.269 348.8L160.884 348.275L162.5 345L164.116 348.275L167.731 348.8L165.115 351.35L165.733 354.95L162.5 353.25Z" fill="white" fill-opacity="0.22"/>
<path fill-rule="evenodd" clip-rule="evenodd" d="M176.769 322.25L173.536 323.95L174.154 320.35L171.538 317.8L175.153 317.275L176.769 314L178.386 317.275L182 317.8L179.385 320.35L180.002 323.95L176.769 322.25Z" fill="white" fill-opacity="0.22"/>
<path fill-rule="evenodd" clip-rule="evenodd" d="M136.5 291.25L133.267 292.95L133.885 289.35L131.269 286.8L134.884 286.275L136.5 283L138.116 286.275L141.731 286.8L139.115 289.35L139.733 292.95L136.5 291.25Z" fill="white" fill-opacity="0.22"/>
<path fill-rule="evenodd" clip-rule="evenodd" d="M83.5 247.25L80.2672 248.95L80.8846 245.35L78.2692 242.8L81.8836 242.275L83.5 239L85.1164 242.275L88.7308 242.8L86.1154 245.35L86.7328 248.95L83.5 247.25Z" fill="white" fill-opacity="0.22"/>
<path fill-rule="evenodd" clip-rule="evenodd" d="M205.769 338.25L202.536 339.95L203.154 336.35L200.538 333.8L204.153 333.275L205.769 330L207.386 333.275L211 333.8L208.385 336.35L209.002 339.95L205.769 338.25Z" fill="white" fill-opacity="0.22"/>
<path fill-rule="evenodd" clip-rule="evenodd" d="M137.5 322.25L134.267 323.95L134.885 320.35L132.269 317.8L135.884 317.275L137.5 314L139.116 317.275L142.731 317.8L140.115 320.35L140.733 323.95L137.5 322.25Z" fill="white" fill-opacity="0.22"/>
<path fill-rule="evenodd" clip-rule="evenodd" d="M278.769 287.25L275.536 288.95L276.154 285.35L273.538 282.8L277.153 282.275L278.769 279L280.386 282.275L284 282.8L281.385 285.35L282.002 288.95L278.769 287.25Z" fill="white" fill-opacity="0.22"/>
<path fill-rule="evenodd" clip-rule="evenodd" d="M250.5 349.25L247.267 350.95L247.885 347.35L245.269 344.8L248.884 344.275L250.5 341L252.116 344.275L255.731 344.8L253.115 347.35L253.733 350.95L250.5 349.25Z" fill="white" fill-opacity="0.22"/>
<path fill-rule="evenodd" clip-rule="evenodd" d="M264.769 318.25L261.536 319.95L262.154 316.35L259.538 313.8L263.153 313.275L264.769 310L266.386 313.275L270 313.8L267.385 316.35L268.002 319.95L264.769 318.25Z" fill="white" fill-opacity="0.22"/>
<path fill-rule="evenodd" clip-rule="evenodd" d="M224.5 287.25L221.267 288.95L221.885 285.35L219.269 282.8L222.884 282.275L224.5 279L226.116 282.275L229.731 282.8L227.115 285.35L227.733 288.95L224.5 287.25Z" fill="white" fill-opacity="0.22"/>
<path fill-rule="evenodd" clip-rule="evenodd" d="M84.5 262.25L81.2672 263.95L81.8846 260.35L79.2692 257.8L82.8836 257.275L84.5 254L86.1164 257.275L89.7308 257.8L87.1154 260.35L87.7328 263.95L84.5 262.25Z" fill="white" fill-opacity="0.22"/>
<path fill-rule="evenodd" clip-rule="evenodd" d="M293.769 334.25L290.536 335.95L291.154 332.35L288.538 329.8L292.153 329.275L293.769 326L295.386 329.275L299 329.8L296.385 332.35L297.002 335.95L293.769 334.25Z" fill="white" fill-opacity="0.22"/>
<path fill-rule="evenodd" clip-rule="evenodd" d="M225.5 318.25L222.267 319.95L222.885 316.35L220.269 313.8L223.884 313.275L225.5 310L227.116 313.275L230.731 313.8L228.115 316.35L228.733 319.95L225.5 318.25Z" fill="white" fill-opacity="0.22"/>
<path fill-rule="evenodd" clip-rule="evenodd" d="M131.231 225.25L127.998 226.95L128.615 223.35L126 220.8L129.614 220.275L131.231 217L132.847 220.275L136.462 220.8L133.846 223.35L134.464 226.95L131.231 225.25Z" fill="white" fill-opacity="0.22"/>
<path fill-rule="evenodd" clip-rule="evenodd" d="M165.5 177.25L161.092 179.568L161.934 174.659L158.367 171.182L163.296 170.466L165.5 166L167.704 170.466L172.633 171.182L169.066 174.659L169.908 179.568L165.5 177.25Z" fill="white" fill-opacity="0.22"/>
<path fill-rule="evenodd" clip-rule="evenodd" d="M278.5 215.25L275.267 216.95L275.885 213.35L273.269 210.8L276.884 210.275L278.5 207L280.116 210.275L283.731 210.8L281.115 213.35L281.733 216.95L278.5 215.25Z" fill="white" fill-opacity="0.22"/>
<path fill-rule="evenodd" clip-rule="evenodd" d="M226.5 196.25L223.267 197.95L223.885 194.35L221.269 191.8L224.884 191.275L226.5 188L228.116 191.275L231.731 191.8L229.115 194.35L229.733 197.95L226.5 196.25Z" fill="white" fill-opacity="0.22"/>
<path fill-rule="evenodd" clip-rule="evenodd" d="M175.5 210.25L172.267 211.95L172.885 208.35L170.269 205.8L173.884 205.275L175.5 202L177.116 205.275L180.731 205.8L178.115 208.35L178.733 211.95L175.5 210.25Z" fill="white" fill-opacity="0.22"/>
<path fill-rule="evenodd" clip-rule="evenodd" d="M249.231 243.25L245.998 244.95L246.615 241.35L244 238.8L247.614 238.275L249.231 235L250.847 238.275L254.462 238.8L251.846 241.35L252.464 244.95L249.231 243.25Z" fill="white" fill-opacity="0.22"/>
<path fill-rule="evenodd" clip-rule="evenodd" d="M168.5 239.25L164.092 241.568L164.934 236.659L161.367 233.182L166.296 232.466L168.5 228L170.704 232.466L175.633 233.182L172.066 236.659L172.908 241.568L168.5 239.25Z" fill="white" fill-opacity="0.22"/>
<path fill-rule="evenodd" clip-rule="evenodd" d="M251.5 210.25L248.267 211.95L248.885 208.35L246.269 205.8L249.884 205.275L251.5 202L253.116 205.275L256.731 205.8L254.115 208.35L254.733 211.95L251.5 210.25Z" fill="white" fill-opacity="0.22"/>
<path fill-rule="evenodd" clip-rule="evenodd" d="M211.5 210.25L208.267 211.95L208.885 208.35L206.269 205.8L209.884 205.275L211.5 202L213.116 205.275L216.731 205.8L214.115 208.35L214.733 211.95L211.5 210.25Z" fill="white" fill-opacity="0.22"/>
<path fill-rule="evenodd" clip-rule="evenodd" d="M211.5 249.25L208.267 250.95L208.885 247.35L206.269 244.8L209.884 244.275L211.5 241L213.116 244.275L216.731 244.8L214.115 247.35L214.733 250.95L211.5 249.25Z" fill="white" fill-opacity="0.22"/>
<g clip-path="url(#clip1)">
<path d="M82.8461 144C99.8106 144 115.304 136.141 125.569 123.264C127.088 121.359 125.432 118.576 123.085 119.031C96.401 124.206 71.8961 103.374 71.8961 75.9478C71.8961 60.1492 80.2024 45.6213 93.7023 37.7991C95.7833 36.5933 95.26 33.381 92.8954 32.9363C89.5805 32.3139 86.2168 32.0005 82.8461 32C52.4867 32 27.8461 57.0493 27.8461 88C27.8461 118.911 52.448 144 82.8461 144Z" fill="white" fill-opacity="0.83"/>
</g>
</g>
</svg>
