<svg width="414" height="736" viewBox="0 0 414 736" fill="none" xmlns="http://www.w3.org/2000/svg">
<defs>
<linearGradient id="paint0_linear" x1="37.5748" y1="43.8348" x2="37.5748" y2="646.236" gradientUnits="userSpaceOnUse">
<stop stop-color="#7F99B0"/>
<stop offset="1" stop-color="#697A8A"/>
</linearGradient>
<clipPath id="clip0">
<rect width="414" height="736" fill="white"/>
</clipPath>
</defs>
<g clip-path="url(#clip0)">
<rect width="414" height="736" fill="white"/>
<rect width="414" height="736" fill="url(#paint0_linear)"/>
<path d="M266.722 38.2791L252.278 61.7209" stroke="#9EB7CD" stroke-width="4" stroke-linecap="round" stroke-dasharray="13 14 18 20"/>
<path d="M244.722 95.2791L230.278 118.721" stroke="#9EB7CD" stroke-width="4" stroke-linecap="round" stroke-dasharray="13 14 18 20"/>
<path d="M237.722 38.2791L223.278 61.7209" stroke="#9EB7CD" stroke-width="4" stroke-linecap="round" stroke-dasharray="13 14 18 20"/>
<path d="M297.722 30.2791L283.278 53.7209" stroke="#9EB7CD" stroke-width="4" stroke-linecap="round" stroke-dasharray="13 14 18 20"/>
<path d="M390.722 63.2791L376.278 86.7209" stroke="#9EB7CD" stroke-width="4" stroke-linecap="round" stroke-dasharray="13 14 18 20"/>
<path d="M382.722 101.279L368.278 124.721" stroke="#9EB7CD" stroke-width="4" stroke-linecap="round" stroke-dasharray="13 14 18 20"/>
<path d="M403.722 125.279L389.278 148.721" stroke="#9EB7CD" stroke-width="4" stroke-linecap="round" stroke-dasharray="13 14 18 20"/>
<path d="M355.722 62.2791L341.278 85.7209" stroke="#9EB7CD" stroke-width="4" stroke-linecap="round" stroke-dasharray="13 14 18 20"/>
<path d="M274.722 76.2791L260.278 99.7209" stroke="#9EB7CD" stroke-width="4" stroke-linecap="round" stroke-dasharray="13 14 18 20"/>
<path d="M342.722 113.279L328.278 136.721" stroke="#9EB7CD" stroke-width="4" stroke-linecap="round" stroke-dasharray="13 14 18 20"/>
<path d="M312.722 88.2791L298.278 111.721" stroke="#9EB7CD" stroke-width="4" stroke-linecap="round" stroke-dasharray="13 14 18 20"/>
<path d="M281.722 107.279L267.278 130.721" stroke="#9EB7CD" stroke-width="4" stroke-linecap="round" stroke-dasharray="13 14 18 20"/>
<path d="M267.722 -11.7209L253.278 11.7209" stroke="#9EB7CD" stroke-width="4" stroke-linecap="round" stroke-dasharray="13 14 18 20"/>
<path d="M327.722 30.2791L313.278 53.7209" stroke="#9EB7CD" stroke-width="4" stroke-linecap="round" stroke-dasharray="13 14 18 20"/>
<path d="M397.722 0.27907L383.278 23.7209" stroke="#9EB7CD" stroke-width="4" stroke-linecap="round" stroke-dasharray="13 14 18 20"/>
<path d="M425.722 28.2791L411.278 51.7209" stroke="#9EB7CD" stroke-width="4" stroke-linecap="round" stroke-dasharray="13 14 18 20"/>
<path d="M43.7222 26.2791L29.2778 49.7209" stroke="#9EB7CD" stroke-width="4" stroke-linecap="round" stroke-dasharray="13 14 18 20"/>
<path d="M21.7222 83.2791L7.27778 106.721" stroke="#9EB7CD" stroke-width="4" stroke-linecap="round" stroke-dasharray="13 14 18 20"/>
<path d="M14.7222 26.2791L0.277778 49.7209" stroke="#9EB7CD" stroke-width="4" stroke-linecap="round" stroke-dasharray="13 14 18 20"/>
<path d="M74.7222 18.2791L60.2778 41.7209" stroke="#9EB7CD" stroke-width="4" stroke-linecap="round" stroke-dasharray="13 14 18 20"/>
<path d="M167.722 51.2791L153.278 74.7209" stroke="#9EB7CD" stroke-width="4" stroke-linecap="round" stroke-dasharray="13 14 18 20"/>
<path d="M159.722 89.2791L145.278 112.721" stroke="#9EB7CD" stroke-width="4" stroke-linecap="round" stroke-dasharray="13 14 18 20"/>
<path d="M180.722 113.279L166.278 136.721" stroke="#9EB7CD" stroke-width="4" stroke-linecap="round" stroke-dasharray="13 14 18 20"/>
<path d="M132.722 50.2791L118.278 73.7209" stroke="#9EB7CD" stroke-width="4" stroke-linecap="round" stroke-dasharray="13 14 18 20"/>
<path d="M51.7222 64.2791L37.2778 87.7209" stroke="#9EB7CD" stroke-width="4" stroke-linecap="round" stroke-dasharray="13 14 18 20"/>
<path d="M119.722 101.279L105.278 124.721" stroke="#9EB7CD" stroke-width="4" stroke-linecap="round" stroke-dasharray="13 14 18 20"/>
<path d="M89.7222 76.2791L75.2778 99.7209" stroke="#9EB7CD" stroke-width="4" stroke-linecap="round" stroke-dasharray="13 14 18 20"/>
<path d="M58.7222 95.2791L44.2778 118.721" stroke="#9EB7CD" stroke-width="4" stroke-linecap="round" stroke-dasharray="13 14 18 20"/>
<path d="M44.7222 -23.7209L30.2778 -0.27907" stroke="#9EB7CD" stroke-width="4" stroke-linecap="round" stroke-dasharray="13 14 18 20"/>
<path d="M104.722 18.2791L90.2778 41.7209" stroke="#9EB7CD" stroke-width="4" stroke-linecap="round" stroke-dasharray="13 14 18 20"/>
<path d="M174.722 -11.7209L160.278 11.7209" stroke="#9EB7CD" stroke-width="4" stroke-linecap="round" stroke-dasharray="13 14 18 20"/>
<path d="M202.722 16.2791L188.278 39.7209" stroke="#9EB7CD" stroke-width="4" stroke-linecap="round" stroke-dasharray="13 14 18 20"/>
<path d="M217.722 63.2791L203.278 86.7209" stroke="#9EB7CD" stroke-width="4" stroke-linecap="round" stroke-dasharray="13 14 18 20"/>
<path d="M367.244 22.6341C366.834 23.5896 366.604 24.6342 366.604 25.7235C366.605 30.4557 370.906 34.2942 376.206 34.2933C378.176 34.293 380.016 33.757 381.536 32.846C384.306 37.1312 389.477 40.0054 395.407 40.0043C404.247 40.0028 411.406 33.6088 411.404 25.7159C411.404 25.4748 411.394 25.2338 411.384 24.9927C416.984 23.2328 421.003 18.4643 421.002 12.8571C421.001 5.75893 414.55 0.00109449 406.6 0.0024447L369.8 0.0086947C362.73 0.00989545 357.001 5.12694 357.002 11.4394C357.003 16.9662 361.404 21.5815 367.244 22.6341Z" fill="white"/>
<path d="M367.244 22.6341C366.834 23.5896 366.604 24.6342 366.604 25.7235C366.605 30.4557 370.906 34.2942 376.206 34.2933C378.176 34.293 380.016 33.757 381.536 32.846C384.306 37.1312 389.477 40.0054 395.407 40.0043C404.247 40.0028 411.406 33.6088 411.404 25.7159C411.404 25.4748 411.394 25.2338 411.384 24.9927C416.984 23.2328 421.003 18.4643 421.002 12.8571C421.001 5.75893 414.55 0.00109449 406.6 0.0024447L369.8 0.0086947C362.73 0.00989545 357.001 5.12694 357.002 11.4394C357.003 16.9662 361.404 21.5815 367.244 22.6341Z" fill="white"/>
<path d="M367.244 22.6341C366.834 23.5896 366.604 24.6342 366.604 25.7235C366.605 30.4557 370.906 34.2942 376.206 34.2933C378.176 34.293 380.016 33.757 381.536 32.846C384.306 37.1312 389.477 40.0054 395.407 40.0043C404.247 40.0028 411.406 33.6088 411.404 25.7159C411.404 25.4748 411.394 25.2338 411.384 24.9927C416.984 23.2328 421.003 18.4643 421.002 12.8571C421.001 5.75893 414.55 0.00109449 406.6 0.0024447L369.8 0.0086947C362.73 0.00989545 357.001 5.12694 357.002 11.4394C357.003 16.9662 361.404 21.5815 367.244 22.6341Z" fill="#616E7A"/>
<path d="M318.244 14.6341C317.834 15.5896 317.604 16.6342 317.604 17.7235C317.605 22.4557 321.906 26.2942 327.206 26.2933C329.176 26.293 331.016 25.757 332.536 24.846C335.306 29.1312 340.477 32.0054 346.407 32.0043C355.247 32.0028 362.406 25.6088 362.404 17.7159C362.404 17.4748 362.394 17.2338 362.384 16.9927C367.984 15.2328 372.003 10.4643 372.002 4.85714C372.001 -2.24107 365.55 -7.99891 357.6 -7.99756L320.8 -7.99131C313.73 -7.9901 308.001 -2.87306 308.002 3.43944C308.003 8.96623 312.404 13.5815 318.244 14.6341Z" fill="white"/>
<path d="M318.244 14.6341C317.834 15.5896 317.604 16.6342 317.604 17.7235C317.605 22.4557 321.906 26.2942 327.206 26.2933C329.176 26.293 331.016 25.757 332.536 24.846C335.306 29.1312 340.477 32.0054 346.407 32.0043C355.247 32.0028 362.406 25.6088 362.404 17.7159C362.404 17.4748 362.394 17.2338 362.384 16.9927C367.984 15.2328 372.003 10.4643 372.002 4.85714C372.001 -2.24107 365.55 -7.99891 357.6 -7.99756L320.8 -7.99131C313.73 -7.9901 308.001 -2.87306 308.002 3.43944C308.003 8.96623 312.404 13.5815 318.244 14.6341Z" fill="white"/>
<path d="M318.244 14.6341C317.834 15.5896 317.604 16.6342 317.604 17.7235C317.605 22.4557 321.906 26.2942 327.206 26.2933C329.176 26.293 331.016 25.757 332.536 24.846C335.306 29.1312 340.477 32.0054 346.407 32.0043C355.247 32.0028 362.406 25.6088 362.404 17.7159C362.404 17.4748 362.394 17.2338 362.384 16.9927C367.984 15.2328 372.003 10.4643 372.002 4.85714C372.001 -2.24107 365.55 -7.99891 357.6 -7.99756L320.8 -7.99131C313.73 -7.9901 308.001 -2.87306 308.002 3.43944C308.003 8.96623 312.404 13.5815 318.244 14.6341Z" fill="#616E7A"/>
<path d="M274.244 14.6341C273.834 15.5896 273.604 16.6342 273.604 17.7235C273.605 22.4557 277.906 26.2942 283.206 26.2933C285.176 26.293 287.016 25.757 288.536 24.846C291.306 29.1312 296.477 32.0054 302.407 32.0043C311.247 32.0028 318.406 25.6088 318.404 17.7159C318.404 17.4748 318.394 17.2338 318.384 16.9927C323.984 15.2328 328.003 10.4643 328.002 4.85714C328.001 -2.24107 321.55 -7.99891 313.6 -7.99756L276.8 -7.99131C269.73 -7.9901 264.001 -2.87306 264.002 3.43944C264.003 8.96623 268.404 13.5815 274.244 14.6341Z" fill="white"/>
<path d="M274.244 14.6341C273.834 15.5896 273.604 16.6342 273.604 17.7235C273.605 22.4557 277.906 26.2942 283.206 26.2933C285.176 26.293 287.016 25.757 288.536 24.846C291.306 29.1312 296.477 32.0054 302.407 32.0043C311.247 32.0028 318.406 25.6088 318.404 17.7159C318.404 17.4748 318.394 17.2338 318.384 16.9927C323.984 15.2328 328.003 10.4643 328.002 4.85714C328.001 -2.24107 321.55 -7.99891 313.6 -7.99756L276.8 -7.99131C269.73 -7.9901 264.001 -2.87306 264.002 3.43944C264.003 8.96623 268.404 13.5815 274.244 14.6341Z" fill="white"/>
<path d="M274.244 14.6341C273.834 15.5896 273.604 16.6342 273.604 17.7235C273.605 22.4557 277.906 26.2942 283.206 26.2933C285.176 26.293 287.016 25.757 288.536 24.846C291.306 29.1312 296.477 32.0054 302.407 32.0043C311.247 32.0028 318.406 25.6088 318.404 17.7159C318.404 17.4748 318.394 17.2338 318.384 16.9927C323.984 15.2328 328.003 10.4643 328.002 4.85714C328.001 -2.24107 321.55 -7.99891 313.6 -7.99756L276.8 -7.99131C269.73 -7.9901 264.001 -2.87306 264.002 3.43944C264.003 8.96623 268.404 13.5815 274.244 14.6341Z" fill="#616E7A"/>
<path d="M232.244 21.6341C231.834 22.5896 231.604 23.6342 231.604 24.7235C231.605 29.4557 235.906 33.2942 241.206 33.2933C243.176 33.293 245.016 32.757 246.536 31.846C249.306 36.1312 254.477 39.0054 260.407 39.0043C269.247 39.0028 276.406 32.6088 276.404 24.7159C276.404 24.4748 276.394 24.2338 276.384 23.9927C281.984 22.2328 286.003 17.4643 286.002 11.8571C286.001 4.75893 279.55 -0.998906 271.6 -0.997555L234.8 -0.991305C227.73 -0.990105 222.001 4.12694 222.002 10.4394C222.003 15.9662 226.404 20.5815 232.244 21.6341Z" fill="white"/>
<path d="M232.244 21.6341C231.834 22.5896 231.604 23.6342 231.604 24.7235C231.605 29.4557 235.906 33.2942 241.206 33.2933C243.176 33.293 245.016 32.757 246.536 31.846C249.306 36.1312 254.477 39.0054 260.407 39.0043C269.247 39.0028 276.406 32.6088 276.404 24.7159C276.404 24.4748 276.394 24.2338 276.384 23.9927C281.984 22.2328 286.003 17.4643 286.002 11.8571C286.001 4.75893 279.55 -0.998906 271.6 -0.997555L234.8 -0.991305C227.73 -0.990105 222.001 4.12694 222.002 10.4394C222.003 15.9662 226.404 20.5815 232.244 21.6341Z" fill="white"/>
<path d="M232.244 21.6341C231.834 22.5896 231.604 23.6342 231.604 24.7235C231.605 29.4557 235.906 33.2942 241.206 33.2933C243.176 33.293 245.016 32.757 246.536 31.846C249.306 36.1312 254.477 39.0054 260.407 39.0043C269.247 39.0028 276.406 32.6088 276.404 24.7159C276.404 24.4748 276.394 24.2338 276.384 23.9927C281.984 22.2328 286.003 17.4643 286.002 11.8571C286.001 4.75893 279.55 -0.998906 271.6 -0.997555L234.8 -0.991305C227.73 -0.990105 222.001 4.12694 222.002 10.4394C222.003 15.9662 226.404 20.5815 232.244 21.6341Z" fill="#616E7A"/>
<path d="M191.244 22.6341C190.834 23.5896 190.604 24.6342 190.604 25.7235C190.605 30.4557 194.906 34.2942 200.206 34.2933C202.176 34.293 204.016 33.757 205.536 32.846C208.306 37.1312 213.477 40.0054 219.407 40.0043C228.247 40.0028 235.406 33.6088 235.404 25.7159C235.404 25.4748 235.394 25.2338 235.384 24.9927C240.984 23.2328 245.003 18.4643 245.002 12.8571C245.001 5.75893 238.55 0.00109449 230.6 0.0024447L193.8 0.0086947C186.73 0.00989545 181.001 5.12694 181.002 11.4394C181.003 16.9662 185.404 21.5815 191.244 22.6341Z" fill="white"/>
<path d="M191.244 22.6341C190.834 23.5896 190.604 24.6342 190.604 25.7235C190.605 30.4557 194.906 34.2942 200.206 34.2933C202.176 34.293 204.016 33.757 205.536 32.846C208.306 37.1312 213.477 40.0054 219.407 40.0043C228.247 40.0028 235.406 33.6088 235.404 25.7159C235.404 25.4748 235.394 25.2338 235.384 24.9927C240.984 23.2328 245.003 18.4643 245.002 12.8571C245.001 5.75893 238.55 0.00109449 230.6 0.0024447L193.8 0.0086947C186.73 0.00989545 181.001 5.12694 181.002 11.4394C181.003 16.9662 185.404 21.5815 191.244 22.6341Z" fill="white"/>
<path d="M191.244 22.6341C190.834 23.5896 190.604 24.6342 190.604 25.7235C190.605 30.4557 194.906 34.2942 200.206 34.2933C202.176 34.293 204.016 33.757 205.536 32.846C208.306 37.1312 213.477 40.0054 219.407 40.0043C228.247 40.0028 235.406 33.6088 235.404 25.7159C235.404 25.4748 235.394 25.2338 235.384 24.9927C240.984 23.2328 245.003 18.4643 245.002 12.8571C245.001 5.75893 238.55 0.00109449 230.6 0.0024447L193.8 0.0086947C186.73 0.00989545 181.001 5.12694 181.002 11.4394C181.003 16.9662 185.404 21.5815 191.244 22.6341Z" fill="#616E7A"/>
<path d="M151.244 22.6341C150.834 23.5896 150.604 24.6342 150.604 25.7235C150.605 30.4557 154.906 34.2942 160.206 34.2933C162.176 34.293 164.016 33.757 165.536 32.846C168.306 37.1312 173.477 40.0054 179.407 40.0043C188.247 40.0028 195.406 33.6088 195.404 25.7159C195.404 25.4748 195.394 25.2338 195.384 24.9927C200.984 23.2328 205.003 18.4643 205.002 12.8571C205.001 5.75893 198.55 0.00109449 190.6 0.0024447L153.8 0.0086947C146.73 0.00989545 141.001 5.12694 141.002 11.4394C141.003 16.9662 145.404 21.5815 151.244 22.6341Z" fill="white"/>
<path d="M151.244 22.6341C150.834 23.5896 150.604 24.6342 150.604 25.7235C150.605 30.4557 154.906 34.2942 160.206 34.2933C162.176 34.293 164.016 33.757 165.536 32.846C168.306 37.1312 173.477 40.0054 179.407 40.0043C188.247 40.0028 195.406 33.6088 195.404 25.7159C195.404 25.4748 195.394 25.2338 195.384 24.9927C200.984 23.2328 205.003 18.4643 205.002 12.8571C205.001 5.75893 198.55 0.00109449 190.6 0.0024447L153.8 0.0086947C146.73 0.00989545 141.001 5.12694 141.002 11.4394C141.003 16.9662 145.404 21.5815 151.244 22.6341Z" fill="white"/>
<path d="M151.244 22.6341C150.834 23.5896 150.604 24.6342 150.604 25.7235C150.605 30.4557 154.906 34.2942 160.206 34.2933C162.176 34.293 164.016 33.757 165.536 32.846C168.306 37.1312 173.477 40.0054 179.407 40.0043C188.247 40.0028 195.406 33.6088 195.404 25.7159C195.404 25.4748 195.394 25.2338 195.384 24.9927C200.984 23.2328 205.003 18.4643 205.002 12.8571C205.001 5.75893 198.55 0.00109449 190.6 0.0024447L153.8 0.0086947C146.73 0.00989545 141.001 5.12694 141.002 11.4394C141.003 16.9662 145.404 21.5815 151.244 22.6341Z" fill="#616E7A"/>
<path d="M107.244 22.6341C106.834 23.5896 106.604 24.6342 106.604 25.7235C106.605 30.4557 110.906 34.2942 116.206 34.2933C118.176 34.293 120.016 33.757 121.536 32.846C124.306 37.1312 129.477 40.0054 135.407 40.0043C144.247 40.0028 151.406 33.6088 151.404 25.7159C151.404 25.4748 151.394 25.2338 151.384 24.9927C156.984 23.2328 161.003 18.4643 161.002 12.8571C161.001 5.75893 154.55 0.00109449 146.6 0.0024447L109.8 0.0086947C102.73 0.00989545 97.0008 5.12694 97.0019 11.4394C97.0029 16.9662 101.404 21.5815 107.244 22.6341Z" fill="white"/>
<path d="M107.244 22.6341C106.834 23.5896 106.604 24.6342 106.604 25.7235C106.605 30.4557 110.906 34.2942 116.206 34.2933C118.176 34.293 120.016 33.757 121.536 32.846C124.306 37.1312 129.477 40.0054 135.407 40.0043C144.247 40.0028 151.406 33.6088 151.404 25.7159C151.404 25.4748 151.394 25.2338 151.384 24.9927C156.984 23.2328 161.003 18.4643 161.002 12.8571C161.001 5.75893 154.55 0.00109449 146.6 0.0024447L109.8 0.0086947C102.73 0.00989545 97.0008 5.12694 97.0019 11.4394C97.0029 16.9662 101.404 21.5815 107.244 22.6341Z" fill="white"/>
<path d="M107.244 22.6341C106.834 23.5896 106.604 24.6342 106.604 25.7235C106.605 30.4557 110.906 34.2942 116.206 34.2933C118.176 34.293 120.016 33.757 121.536 32.846C124.306 37.1312 129.477 40.0054 135.407 40.0043C144.247 40.0028 151.406 33.6088 151.404 25.7159C151.404 25.4748 151.394 25.2338 151.384 24.9927C156.984 23.2328 161.003 18.4643 161.002 12.8571C161.001 5.75893 154.55 0.00109449 146.6 0.0024447L109.8 0.0086947C102.73 0.00989545 97.0008 5.12694 97.0019 11.4394C97.0029 16.9662 101.404 21.5815 107.244 22.6341Z" fill="#616E7A"/>
<path d="M62.2438 22.6341C61.834 23.5896 61.6042 24.6342 61.6043 25.7235C61.6052 30.4557 65.9058 34.2942 71.2058 34.2933C73.1758 34.293 75.0157 33.757 76.5356 32.846C79.3063 37.1312 84.4768 40.0054 90.4068 40.0043C99.2468 40.0028 106.406 33.6088 106.404 25.7159C106.404 25.4748 106.394 25.2338 106.384 24.9927C111.984 23.2328 116.003 18.4643 116.002 12.8571C116.001 5.75893 109.55 0.00109449 101.6 0.0024447L64.8 0.0086947C57.73 0.00989545 52.0008 5.12694 52.0019 11.4394C52.0029 16.9662 56.4036 21.5815 62.2438 22.6341Z" fill="white"/>
<path d="M62.2438 22.6341C61.834 23.5896 61.6042 24.6342 61.6043 25.7235C61.6052 30.4557 65.9058 34.2942 71.2058 34.2933C73.1758 34.293 75.0157 33.757 76.5356 32.846C79.3063 37.1312 84.4768 40.0054 90.4068 40.0043C99.2468 40.0028 106.406 33.6088 106.404 25.7159C106.404 25.4748 106.394 25.2338 106.384 24.9927C111.984 23.2328 116.003 18.4643 116.002 12.8571C116.001 5.75893 109.55 0.00109449 101.6 0.0024447L64.8 0.0086947C57.73 0.00989545 52.0008 5.12694 52.0019 11.4394C52.0029 16.9662 56.4036 21.5815 62.2438 22.6341Z" fill="white"/>
<path d="M62.2438 22.6341C61.834 23.5896 61.6042 24.6342 61.6043 25.7235C61.6052 30.4557 65.9058 34.2942 71.2058 34.2933C73.1758 34.293 75.0157 33.757 76.5356 32.846C79.3063 37.1312 84.4768 40.0054 90.4068 40.0043C99.2468 40.0028 106.406 33.6088 106.404 25.7159C106.404 25.4748 106.394 25.2338 106.384 24.9927C111.984 23.2328 116.003 18.4643 116.002 12.8571C116.001 5.75893 109.55 0.00109449 101.6 0.0024447L64.8 0.0086947C57.73 0.00989545 52.0008 5.12694 52.0019 11.4394C52.0029 16.9662 56.4036 21.5815 62.2438 22.6341Z" fill="#616E7A"/>
<path d="M18.2438 22.6341C17.834 23.5896 17.6042 24.6342 17.6043 25.7235C17.6052 30.4557 21.9058 34.2942 27.2058 34.2933C29.1758 34.293 31.0157 33.757 32.5356 32.846C35.3063 37.1312 40.4768 40.0054 46.4068 40.0043C55.2468 40.0028 62.4057 33.6088 62.4043 25.7159C62.4043 25.4748 62.3943 25.2338 62.3842 24.9927C67.9839 23.2328 72.0031 18.4643 72.0022 12.8571C72.001 5.75893 65.55 0.00109449 57.6 0.0024447L20.8 0.0086947C13.73 0.00989545 8.00085 5.12694 8.00192 11.4394C8.00286 16.9662 12.4036 21.5815 18.2438 22.6341Z" fill="white"/>
<path d="M18.2438 22.6341C17.834 23.5896 17.6042 24.6342 17.6043 25.7235C17.6052 30.4557 21.9058 34.2942 27.2058 34.2933C29.1758 34.293 31.0157 33.757 32.5356 32.846C35.3063 37.1312 40.4768 40.0054 46.4068 40.0043C55.2468 40.0028 62.4057 33.6088 62.4043 25.7159C62.4043 25.4748 62.3943 25.2338 62.3842 24.9927C67.9839 23.2328 72.0031 18.4643 72.0022 12.8571C72.001 5.75893 65.55 0.00109449 57.6 0.0024447L20.8 0.0086947C13.73 0.00989545 8.00085 5.12694 8.00192 11.4394C8.00286 16.9662 12.4036 21.5815 18.2438 22.6341Z" fill="white"/>
<path d="M18.2438 22.6341C17.834 23.5896 17.6042 24.6342 17.6043 25.7235C17.6052 30.4557 21.9058 34.2942 27.2058 34.2933C29.1758 34.293 31.0157 33.757 32.5356 32.846C35.3063 37.1312 40.4768 40.0054 46.4068 40.0043C55.2468 40.0028 62.4057 33.6088 62.4043 25.7159C62.4043 25.4748 62.3943 25.2338 62.3842 24.9927C67.9839 23.2328 72.0031 18.4643 72.0022 12.8571C72.001 5.75893 65.55 0.00109449 57.6 0.0024447L20.8 0.0086947C13.73 0.00989545 8.00085 5.12694 8.00192 11.4394C8.00286 16.9662 12.4036 21.5815 18.2438 22.6341Z" fill="#616E7A"/>
<path d="M-1.75617 22.6341C-2.16601 23.5896 -2.39584 24.6342 -2.39565 25.7235C-2.39485 30.4557 1.9058 34.2942 7.2058 34.2933C9.1758 34.293 11.0157 33.757 12.5356 32.846C15.3063 37.1312 20.4768 40.0054 26.4068 40.0043C35.2468 40.0028 42.4057 33.6088 42.4043 25.7159C42.4043 25.4748 42.3943 25.2338 42.3842 24.9927C47.9839 23.2328 52.0031 18.4643 52.0022 12.8571C52.001 5.75893 45.55 0.00109449 37.6 0.0024447L0.799981 0.0086947C-6.27002 0.00989545 -11.9992 5.12694 -11.9981 11.4394C-11.9971 16.9662 -7.59635 21.5815 -1.75617 22.6341Z" fill="white"/>
<path d="M-1.75617 22.6341C-2.16601 23.5896 -2.39584 24.6342 -2.39565 25.7235C-2.39485 30.4557 1.9058 34.2942 7.2058 34.2933C9.1758 34.293 11.0157 33.757 12.5356 32.846C15.3063 37.1312 20.4768 40.0054 26.4068 40.0043C35.2468 40.0028 42.4057 33.6088 42.4043 25.7159C42.4043 25.4748 42.3943 25.2338 42.3842 24.9927C47.9839 23.2328 52.0031 18.4643 52.0022 12.8571C52.001 5.75893 45.55 0.00109449 37.6 0.0024447L0.799981 0.0086947C-6.27002 0.00989545 -11.9992 5.12694 -11.9981 11.4394C-11.9971 16.9662 -7.59635 21.5815 -1.75617 22.6341Z" fill="white"/>
<path d="M-1.75617 22.6341C-2.16601 23.5896 -2.39584 24.6342 -2.39565 25.7235C-2.39485 30.4557 1.9058 34.2942 7.2058 34.2933C9.1758 34.293 11.0157 33.757 12.5356 32.846C15.3063 37.1312 20.4768 40.0054 26.4068 40.0043C35.2468 40.0028 42.4057 33.6088 42.4043 25.7159C42.4043 25.4748 42.3943 25.2338 42.3842 24.9927C47.9839 23.2328 52.0031 18.4643 52.0022 12.8571C52.001 5.75893 45.55 0.00109449 37.6 0.0024447L0.799981 0.0086947C-6.27002 0.00989545 -11.9992 5.12694 -11.9981 11.4394C-11.9971 16.9662 -7.59635 21.5815 -1.75617 22.6341Z" fill="#616E7A"/>
</g>
</svg>
